HIERARCHY
ROOT root
{
	OFFSET 0.000000 0.000000 0.000000
	CHANNELS 6 Xposition Yposition Zposition Zrotation Yrotation Xrotation
	JOINT lhip
	{
		OFFSET 0.058581 -0.082280 -0.017664
		CHANNELS 3 Zrotation Yrotation Xrotation
		JOINT lknee
		{
			OFFSET 0.043451 -0.386469 0.008037
			CHANNELS 3 Zrotation Yrotation Xrotation
			JOINT lankle
			{
				OFFSET -0.014790 -0.426874 -0.037428
				CHANNELS 3 Zrotation Yrotation Xrotation
				JOINT ltoe
				{
					OFFSET 0.041054 -0.060286 0.122042
					CHANNELS 3 Zrotation Yrotation Xrotation
					End Site
					{
						OFFSET 0.000000 0.000000 0.000000
					}
				}
			}
		}
	}
	JOINT rhip
	{
		OFFSET -0.060310 -0.090513 -0.013543
		CHANNELS 3 Zrotation Yrotation Xrotation
		JOINT rknee
		{
			OFFSET -0.043257 -0.383688 -0.004843
			CHANNELS 3 Zrotation Yrotation Xrotation
			JOINT rankle
			{
				OFFSET 0.019056 -0.420046 -0.034562
				CHANNELS 3 Zrotation Yrotation Xrotation
				JOINT rtoe
				{
					OFFSET -0.034840 -0.062106 0.130323
					CHANNELS 3 Zrotation Yrotation Xrotation
					End Site
					{
						OFFSET 0.000000 0.000000 0.000000
					}
				}
			}
		}
	}
	JOINT lowerback
	{
		OFFSET 0.004439 0.124404 -0.038385
		CHANNELS 3 Zrotation Yrotation Xrotation
		JOINT upperback
		{
			OFFSET 0.004488 0.137956 0.026820
			CHANNELS 3 Zrotation Yrotation Xrotation
			JOINT chest
			{
				OFFSET -0.002265 0.056032 0.002855
				CHANNELS 3 Zrotation Yrotation Xrotation
				JOINT lowerneck
				{
					OFFSET -0.013390 0.211636 -0.033468
					CHANNELS 3 Zrotation Yrotation Xrotation
					JOINT upperneck
					{
						OFFSET 0.010113 0.088937 0.050410
						CHANNELS 3 Zrotation Yrotation Xrotation
						End Site
						{
							OFFSET 0.000000 0.000000 0.000000
						}
					}
				}
				JOINT lclavicle
				{
					OFFSET 0.071702 0.114000 -0.018898
					CHANNELS 3 Zrotation Yrotation Xrotation
					JOINT lshoulder
					{
						OFFSET 0.122921 0.045205 -0.019046
						CHANNELS 3 Zrotation Yrotation Xrotation
						JOINT lelbow
						{
							OFFSET 0.255332 -0.015649 -0.022946
							CHANNELS 3 Zrotation Yrotation Xrotation
							JOINT lwrist
							{
								OFFSET 0.265709 0.012698 -0.007375
								CHANNELS 3 Zrotation Yrotation Xrotation
								End Site
								{
									OFFSET 0.000000 0.000000 0.000000
								}
							}
						}
					}
				}
				JOINT rclavicle
				{
					OFFSET -0.082954 0.112472 -0.023707
					CHANNELS 3 Zrotation Yrotation Xrotation
					JOINT rshoulder
					{
						OFFSET -0.113228 0.046853 -0.008472
						CHANNELS 3 Zrotation Yrotation Xrotation
						JOINT relbow
						{
							OFFSET -0.260127 -0.014369 -0.031269
							CHANNELS 3 Zrotation Yrotation Xrotation
							JOINT rwrist
							{
								OFFSET -0.269108 0.006794 -0.006027
								CHANNELS 3 Zrotation Yrotation Xrotation
								End Site
								{
									OFFSET 0.000000 0.000000 0.000000
								}
							}
						}
					}
				}
			}
		}
	}
}
MOTION
Frames: 10
Frame Time: 0.033333
0.000073 -1.164136 0.958465 177.465286 -5.466233 101.031242 7.371678 -9.202221 -60.596389 -7.592284 15.547453 67.774834 4.702168 2.252297 -5.883629 0.000000 -0.000000 0.000000 -5.371011 -6.862785 17.119079 2.179902 7.968581 25.810006 7.816750 1.669841 0.015035 0.000000 -0.000000 0.000000 -10.270261 21.211877 9.280237 4.874585 -5.229699 6.288676 1.834213 2.547123 2.177852 -3.974997 4.366766 -3.273180 4.498527 -7.475979 -20.898953 -1.642121 4.494857 14.111181 -42.032561 32.904554 14.328411 -83.825663 -57.366910 100.349685 17.816908 -2.587375 -24.856402 11.219779 1.473456 -6.721641 69.926603 11.697313 22.879835 -169.243418 57.011083 -151.956552 -13.762669 10.829396 -27.004181 
0.003566 -1.014020 0.967301 179.763552 -4.195538 99.587265 5.778828 -9.266182 -53.172326 -9.273018 10.836044 41.732470 3.393796 3.358048 -6.190085 0.000000 -0.000000 0.000000 -2.877985 -6.276444 21.371994 1.942979 5.659705 36.699151 5.944462 -1.448649 -2.978535 0.000000 -0.000000 0.000000 -9.431936 18.509915 10.511040 3.890932 -4.636272 6.548069 1.992189 2.677833 1.750188 -3.694160 2.556674 -3.260387 5.441822 -5.697390 -20.169411 -5.721540 6.474235 12.937437 -46.118523 32.661337 13.128430 -88.656214 -64.903353 106.585991 20.450806 -2.278392 -24.674850 11.789023 0.961651 -5.529108 68.611968 5.365516 21.009710 -175.534883 67.610136 -160.169530 -6.744528 10.570841 -29.053748 
0.006444 -0.866790 0.969398 -177.275166 -3.162500 97.835891 1.647833 -8.274765 -42.914234 -9.655294 4.871515 22.428544 -1.049592 2.994075 -5.774851 0.000000 -0.000000 0.000000 -1.050504 -7.781117 21.220566 -0.243269 0.447449 54.131620 5.836946 -6.011160 -6.200181 0.000000 -0.000000 0.000000 -8.326209 14.868467 12.948986 2.257244 -4.220332 7.089718 2.310576 2.480585 0.683702 -2.342318 0.382334 -4.448497 6.607238 -3.418404 -18.223858 -12.844375 7.012736 10.211363 -49.576110 28.959196 12.871015 -89.273970 -73.025451 109.560671 22.254088 -1.691183 -22.158835 15.106688 1.168915 -3.491963 67.839435 -0.985533 17.479138 179.944815 84.850983 -169.250147 -3.013519 8.917467 -28.614483 
0.006557 -0.685298 0.957655 -172.926826 -2.706597 96.326119 -2.148524 -8.447912 -33.442810 -10.005207 5.217090 22.674234 0.695455 4.243725 -5.474608 0.000000 -0.000000 0.000000 -0.439043 -8.053123 14.115277 -3.235660 -6.228940 81.427625 1.549256 -10.285344 -7.213681 0.000000 -0.000000 0.000000 -7.307573 9.901240 15.337761 0.598992 -4.117527 7.832547 1.393953 0.774403 -1.205844 0.388296 -3.531238 -4.529432 8.292530 1.392100 -16.750790 -23.783209 4.969065 8.509318 -50.660986 20.987437 13.370793 -97.857579 -83.621894 120.102917 22.909164 -1.469002 -18.960746 21.382698 1.471066 -0.727071 65.253173 -6.640925 12.973538 1.280428 69.721058 6.489233 -4.705885 7.879241 -24.578748 
0.006402 -0.580603 0.943460 -170.713550 -2.420001 95.901552 -3.605089 -10.163509 -29.206693 -12.113226 2.122526 29.381700 13.160633 10.716081 -13.447462 0.000000 -0.000000 0.000000 -0.225020 -6.957334 5.393513 -0.371716 -8.717224 98.065439 -0.715784 -11.153824 -6.259227 0.000000 -0.000000 0.000000 -7.434515 6.557941 17.349584 0.148440 -3.814572 5.594697 0.946734 -0.575916 0.357462 2.371321 -4.340535 -7.109819 8.775556 4.201899 -14.475569 -27.772965 3.485408 6.758432 -51.951833 13.617728 15.163983 -131.800015 -87.197541 155.126982 26.025320 0.392898 -16.317062 23.358801 1.154170 0.033130 63.969747 -8.418704 12.107536 -0.538703 54.004445 2.546069 -5.043613 7.448831 -16.420497 
0.005036 -0.445552 0.928642 -168.066836 -1.468557 95.468760 -3.937904 -10.616978 -24.274968 -12.700891 0.044842 39.665540 13.529121 15.833554 -22.652586 0.000000 -0.000000 0.000000 -0.782184 -4.002859 -11.689014 0.551225 -12.154907 115.755017 -0.407134 -7.691822 -9.105713 0.000000 -0.000000 0.000000 -6.848413 1.829990 19.528222 0.336219 -3.905360 5.526825 1.104948 -1.762070 1.804504 3.141189 -1.720189 -11.832138 8.094115 4.469421 -13.041327 -29.814275 -1.169644 3.431089 -56.349765 2.103053 17.498303 154.715353 -85.800311 -129.420042 28.849496 -0.167535 -12.481677 24.047405 1.566152 2.812097 59.873251 -11.741214 10.517357 1.042302 44.051160 5.883935 -7.987373 8.296921 -13.994395 
0.001696 -0.301943 0.927556 -167.643793 -0.121653 94.797599 -3.224492 -6.093773 -9.884190 -13.829036 -7.172734 34.885475 12.053648 16.945769 -26.869768 0.000000 -0.000000 0.000000 -2.619158 -1.096285 -29.714062 0.678426 -13.034310 120.520874 -0.025936 -6.667300 -11.988475 0.000000 -0.000000 0.000000 -6.141711 -2.955932 19.766076 0.813027 -2.236325 5.616844 1.732815 -3.310736 2.454884 1.677369 0.546186 -11.216996 6.276878 5.923133 -12.510514 -28.135413 -3.714594 1.247253 -61.611635 -8.995615 19.392847 151.727977 -80.356909 -122.799463 28.165589 -2.868549 -7.688943 21.519307 -1.317921 5.363556 53.530694 -18.489196 11.045317 12.012283 49.358650 20.705327 -7.862537 10.375982 -19.788100 
-0.002736 -0.149287 0.940203 -166.284242 1.377441 96.228299 0.905136 -2.576914 2.581529 -13.574044 -14.551388 28.229014 4.745064 12.292267 -20.537823 0.000000 -0.000000 0.000000 -5.427107 -0.035169 -45.652136 -0.486853 -14.028843 112.146392 0.173574 -7.277035 -12.466056 0.000000 -0.000000 0.000000 -3.807474 -9.717502 16.561285 0.944721 -1.607943 4.187870 1.772915 -5.733467 3.423442 -0.403871 2.192970 -8.485814 4.525197 10.283272 -9.685319 -25.358444 -1.850368 -0.105187 -64.945461 -13.782007 21.241298 156.845258 -71.542444 -126.685534 32.518947 -5.002983 -4.694010 16.680479 -4.924225 7.167984 46.072571 -23.459238 14.063468 31.235466 55.442387 41.685615 -8.986735 10.824544 -25.184507 
-0.004648 0.011970 0.963955 -165.646439 3.133307 97.658066 7.466252 -0.572347 13.043032 -10.862472 -16.520649 19.987765 -8.584780 5.863156 0.794775 0.000000 -0.000000 0.000000 -7.349626 1.805304 -53.356263 -0.800712 -16.025566 92.739536 0.619003 -5.271791 -12.657408 0.000000 -0.000000 0.000000 -0.738136 -14.904030 10.960644 1.255115 -1.452435 7.342122 2.165491 -6.986471 1.790724 -2.816486 4.426931 -4.196565 3.034677 14.584791 -11.584952 -23.085128 1.400961 -0.420672 -65.085920 -13.445483 22.033004 163.635222 -64.552218 -133.556375 37.835380 -6.999531 -4.748877 12.426928 -7.384431 10.685212 41.759708 -26.459683 14.926016 50.694984 60.476970 59.690209 -12.633372 9.575552 -34.442720 
-0.009317 0.208694 0.988128 -167.803983 3.811277 98.558714 9.206203 1.370515 20.734042 -6.042353 -15.181057 21.569683 -5.789399 11.822091 4.540848 0.000000 -0.000000 0.000000 -7.025574 3.934988 -54.055992 4.687740 -12.021450 59.373318 1.524180 -6.723962 -11.399607 0.000000 -0.000000 0.000000 2.317325 -17.104834 5.301019 0.769613 -1.083795 9.246315 2.482095 -7.100527 1.894577 -6.046491 2.988426 1.262899 1.371413 19.935188 -16.361177 -19.744857 5.587661 1.269283 -63.597205 -11.274522 19.267266 174.896937 -61.616425 -144.452740 40.341026 -5.491048 -5.169258 5.802580 -10.285469 13.737806 44.477482 -28.631177 13.450604 72.214429 65.774705 82.584507 -11.671564 9.743351 -37.791858 
